Genre:Comedy
Language:English
 
http://www.imdb.com/title/tt1414382/

Source:Blu-ray.720p.x264.DTS-MySiLU
Subtitles:Romana


Format : Matroska
File size : 1.98 GiB
Duration : 1h 45mn
Overall bit rate : 2 682 Kbps

Video
Format settings, CABAC : Yes
Format settings, ReFrames : 4 frames
Format settings, GOP : M=1, N=32
Codec ID : V_MPEG4/ISO/AVC
Duration : 1h 45mn
Bit rate : 2 300 Kbps
Width : 1 280 pixels
Height : 532 pixels
Display aspect ratio : 2.40:1
Frame rate mode : Variable
Frame rate : 23.976 fps
Color space : YUV
Chroma subsampling : 4:2:0
Bit depth : 8 bits
Scan type : Progressive
Bits/(Pixel*Frame) : 0.141
Stream size : 1.65 GiB (84%)
Writing library : x264

Audio
ID : 2
Format : AC-3
Format/Info : Audio Coding 3
Mode extension : CM (complete main)
Codec ID : A_AC3
Duration : 1h 45mn
Bit rate mode : Constant
Bit rate : 384 Kbps
Channel(s) : 6 channels
Channel positions : Front: L C R, Side: L R, LFE
Sampling rate : 48.0 KHz
Bit depth : 16 bits
Video delay : -1mn 5s
Stream size : 290 MiB (14%)
Language : English


Plot:
When a young woman realizes her brother is about to marry the girl who bullied her in high school, she sets out to expose the fiancTe's true colors.
 
http://img704.imageshack.us/img704/4599/vlcsnap2010122909h23m17.png
 
http://img403.imageshack.us/img403/8996/vlcsnap2010122909h23m04.png
 
http://img600.imageshack.us/img600/5859/vlcsnap2010122909h24m43.png
 
http://img692.imageshack.us/img692/149/vlcsnap2010122909h25m09.png
 
http://img408.imageshack.us/img408/730/vlcsnap2010122909h24m20.png